<?xml version="1.0" encoding="UTF-8" standalone="no"?>
<!DOCTYPE svg PUBLIC "-//W3C//DTD SVG 1.1//EN" "http://www.w3.org/Graphics/SVG/1.1/DTD/svg11.dtd">
<svg width="100%" height="100%" viewBox="0 0 204 57" version="1.1" xmlns="http://www.w3.org/2000/svg" xmlns:xlink="http://www.w3.org/1999/xlink" xml:space="preserve" xmlns:serif="http://www.serif.com/" style="fill-rule:evenodd;clip-rule:evenodd;stroke-linejoin:round;stroke-miterlimit:1.41421;">
    <g transform="matrix(0.230364,0,0,0.230364,-66.0883,-54.4457)">
        <g transform="matrix(0.946213,0,0,0.946213,446.379,160.143)">
            <g transform="matrix(132.91,0,0,132.91,106.603,257.271)">
                <path d="M0.224,-0.591L0.224,-0.378L0.562,-0.378L0.562,-0.268L0.224,-0.268L0.224,0L0.094,0L0.094,-0.7L0.605,-0.7L0.605,-0.591L0.224,-0.591Z" style="fill:white;fill-rule:nonzero;"/>
            </g>
            <g transform="matrix(132.91,0,0,132.91,185.286,257.271)">
                <path d="M0.322,0.007C0.268,0.007 0.219,-0.005 0.176,-0.028C0.133,-0.051 0.099,-0.084 0.075,-0.126C0.05,-0.167 0.038,-0.214 0.038,-0.267C0.038,-0.32 0.05,-0.367 0.075,-0.408C0.099,-0.449 0.133,-0.482 0.176,-0.505C0.219,-0.528 0.268,-0.54 0.322,-0.54C0.377,-0.54 0.426,-0.528 0.469,-0.505C0.512,-0.482 0.546,-0.449 0.571,-0.408C0.595,-0.367 0.607,-0.32 0.607,-0.267C0.607,-0.214 0.595,-0.167 0.571,-0.126C0.546,-0.084 0.512,-0.051 0.469,-0.028C0.426,-0.005 0.377,0.007 0.322,0.007ZM0.322,-0.1C0.368,-0.1 0.406,-0.115 0.436,-0.146C0.466,-0.177 0.481,-0.217 0.481,-0.267C0.481,-0.317 0.466,-0.357 0.436,-0.388C0.406,-0.419 0.368,-0.434 0.322,-0.434C0.276,-0.434 0.238,-0.419 0.209,-0.388C0.179,-0.357 0.164,-0.317 0.164,-0.267C0.164,-0.217 0.179,-0.177 0.209,-0.146C0.238,-0.115 0.276,-0.1 0.322,-0.1Z" style="fill:white;fill-rule:nonzero;"/>
            </g>
            <g transform="matrix(132.91,0,0,132.91,267.025,257.271)">
                <path d="M0.201,-0.456C0.237,-0.512 0.3,-0.54 0.391,-0.54L0.391,-0.421C0.38,-0.423 0.371,-0.424 0.362,-0.424C0.313,-0.424 0.275,-0.41 0.248,-0.382C0.221,-0.353 0.207,-0.312 0.207,-0.259L0.207,0L0.082,0L0.082,-0.534L0.201,-0.534L0.201,-0.456Z" style="fill:white;fill-rule:nonzero;"/>
            </g>
            <g transform="matrix(132.91,0,0,132.91,318.196,257.271)">
                <path d="M0.756,-0.54C0.823,-0.54 0.877,-0.521 0.916,-0.482C0.955,-0.443 0.975,-0.384 0.975,-0.306L0.975,0L0.85,0L0.85,-0.29C0.85,-0.337 0.84,-0.372 0.819,-0.396C0.798,-0.419 0.769,-0.431 0.73,-0.431C0.688,-0.431 0.654,-0.417 0.629,-0.39C0.604,-0.362 0.591,-0.322 0.591,-0.271L0.591,0L0.466,0L0.466,-0.29C0.466,-0.337 0.456,-0.372 0.435,-0.396C0.414,-0.419 0.385,-0.431 0.346,-0.431C0.303,-0.431 0.27,-0.417 0.245,-0.39C0.22,-0.363 0.207,-0.323 0.207,-0.271L0.207,0L0.082,0L0.082,-0.534L0.201,-0.534L0.201,-0.466C0.221,-0.49 0.246,-0.508 0.276,-0.521C0.306,-0.534 0.339,-0.54 0.376,-0.54C0.416,-0.54 0.452,-0.533 0.483,-0.518C0.514,-0.502 0.538,-0.48 0.556,-0.451C0.578,-0.479 0.606,-0.501 0.641,-0.517C0.676,-0.532 0.714,-0.54 0.756,-0.54Z" style="fill:white;fill-rule:nonzero;"/>
            </g>
            <g transform="matrix(132.91,0,0,132.91,454.163,257.271)">
                <path d="M0.247,0.007C0.204,0.007 0.161,0.001 0.12,-0.01C0.079,-0.021 0.046,-0.036 0.021,-0.053L0.069,-0.148C0.093,-0.132 0.122,-0.119 0.156,-0.11C0.189,-0.1 0.222,-0.095 0.255,-0.095C0.33,-0.095 0.367,-0.115 0.367,-0.154C0.367,-0.173 0.358,-0.186 0.339,-0.193C0.32,-0.2 0.289,-0.207 0.247,-0.214C0.203,-0.221 0.167,-0.228 0.14,-0.237C0.112,-0.246 0.088,-0.261 0.068,-0.282C0.047,-0.304 0.037,-0.334 0.037,-0.373C0.037,-0.424 0.058,-0.464 0.101,-0.495C0.143,-0.525 0.2,-0.54 0.272,-0.54C0.309,-0.54 0.345,-0.536 0.382,-0.528C0.419,-0.519 0.449,-0.508 0.472,-0.494L0.424,-0.399C0.379,-0.426 0.328,-0.439 0.271,-0.439C0.234,-0.439 0.206,-0.434 0.188,-0.423C0.169,-0.411 0.159,-0.397 0.159,-0.379C0.159,-0.359 0.169,-0.345 0.19,-0.337C0.21,-0.328 0.241,-0.32 0.284,-0.313C0.327,-0.306 0.362,-0.299 0.389,-0.29C0.416,-0.281 0.44,-0.267 0.46,-0.246C0.479,-0.225 0.489,-0.196 0.489,-0.158C0.489,-0.108 0.467,-0.068 0.424,-0.038C0.381,-0.008 0.322,0.007 0.247,0.007Z" style="fill:white;fill-rule:nonzero;"/>
            </g>
        </g>
        <g transform="matrix(2.27259,0,0,2.27259,323.721,263.279)">
            <path d="M13.59,80.296L0.08,80.296L0.08,29.874L13.59,80.296ZM77.476,80.296L23.984,80.296L77.476,65.962L77.476,80.296ZM71.581,60.293L19.237,74.319L5.975,24.826L58.319,10.801L71.581,60.293ZM40.968,21.911C41.097,21.913 41.226,21.915 41.355,21.918C39.172,22.359 37.003,23.164 34.941,24.354C25.61,29.741 22.01,40.996 26.907,49.476C30.062,54.942 35.981,57.928 42.288,57.918L42.403,57.917C45.846,57.891 49.4,56.974 52.68,55.08C54.616,53.962 56.303,52.59 57.721,51.045C55.753,54.508 52.797,57.567 48.995,59.763C45.296,61.898 41.287,62.933 37.405,62.962L37.275,62.963C30.162,62.974 23.487,59.607 19.928,53.443C14.407,43.879 18.466,31.186 28.989,25.111C32.75,22.939 36.831,21.906 40.774,21.91L40.968,21.911ZM77.477,55.245L63.966,4.824L77.476,4.824L77.477,55.245ZM59.135,34.54L51.78,38.39L59.544,40.983L51.295,41.335L57.078,47.023L49.568,43.808L52.225,51.464L46.942,45.319L45.946,53.427L43.936,45.569L39.485,52.524L41.147,44.508L34.122,48.932L39.126,42.347L30.919,43.364L38.274,39.514L30.51,36.922L38.759,36.569L32.976,30.882L40.486,34.096L37.83,26.44L43.113,32.585L44.108,24.477L46.118,32.335L50.57,25.381L48.907,33.396L55.932,28.972L50.928,35.557L59.135,34.54ZM0.079,19.157L0.079,4.824L53.573,4.824L0.079,19.157Z" style="fill:white;"/>
        </g>
    </g>
</svg>
